<svg width="40" height="40" viewBox="0 0 40 40" fill="none" xmlns="http://www.w3.org/2000/svg">
<path d="M6.66667 13.3333C7.58714 13.3333 8.33333 12.5871 8.33333 11.6667C8.33333 10.7462 7.58714 10 6.66667 10C5.74619 10 5 10.7462 5 11.6667C5 12.5871 5.74619 13.3333 6.66667 13.3333Z" fill="#063E42"/>
<path d="M6.66667 21.6666C7.58714 21.6666 8.33333 20.9205 8.33333 20C8.33333 19.0795 7.58714 18.3333 6.66667 18.3333C5.74619 18.3333 5 19.0795 5 20C5 20.9205 5.74619 21.6666 6.66667 21.6666Z" fill="#063E42"/>
<path d="M6.66667 30C7.58714 30 8.33333 29.2538 8.33333 28.3334C8.33333 27.4129 7.58714 26.6667 6.66667 26.6667C5.74619 26.6667 5 27.4129 5 28.3334C5 29.2538 5.74619 30 6.66667 30Z" fill="#063E42"/>
<path d="M33.4333 18.3333H13.2333C12.3681 18.3333 11.6667 19.0347 11.6667 19.9V20.1C11.6667 20.9652 12.3681 21.6666 13.2333 21.6666H33.4333C34.2986 21.6666 35 20.9652 35 20.1V19.9C35 19.0347 34.2986 18.3333 33.4333 18.3333Z" fill="#063E42"/>
<path d="M33.4333 26.6667H13.2333C12.3681 26.6667 11.6667 27.3681 11.6667 28.2334V28.4334C11.6667 29.2986 12.3681 30 13.2333 30H33.4333C34.2986 30 35 29.2986 35 28.4334V28.2334C35 27.3681 34.2986 26.6667 33.4333 26.6667Z" fill="#063E42"/>
<path d="M33.4333 10H13.2333C12.3681 10 11.6667 10.7014 11.6667 11.5667V11.7667C11.6667 12.6319 12.3681 13.3333 13.2333 13.3333H33.4333C34.2986 13.3333 35 12.6319 35 11.7667V11.5667C35 10.7014 34.2986 10 33.4333 10Z" fill="#063E42"/>
</svg>
