<svg width="40" height="40" viewBox="0 0 40 40" fill="none" xmlns="http://www.w3.org/2000/svg">
<path d="M37.1833 16.85L21.5583 4.34998C21.1156 3.99706 20.5662 3.80487 20 3.80487C19.4338 3.80487 18.8844 3.99706 18.4417 4.34998L2.81666 16.85C2.72056 16.9139 2.63877 16.997 2.57648 17.0941C2.51419 17.1913 2.47275 17.3003 2.4548 17.4143C2.43684 17.5283 2.44275 17.6447 2.47215 17.7563C2.50156 17.8679 2.55382 17.9722 2.62562 18.0625C2.69743 18.1529 2.78721 18.2273 2.88928 18.2811C2.99135 18.3349 3.10349 18.367 3.2186 18.3752C3.3337 18.3834 3.44925 18.3676 3.55794 18.3289C3.66663 18.2901 3.76608 18.2292 3.85 18.15L6.66666 15.9V34.1666C6.66666 34.8297 6.93005 35.4656 7.39889 35.9344C7.86774 36.4033 8.50362 36.6666 9.16666 36.6666H15C15.221 36.6666 15.433 36.5789 15.5893 36.4226C15.7455 36.2663 15.8333 36.0543 15.8333 35.8333V20.8333C15.8333 20.1703 16.0967 19.5344 16.5656 19.0655C17.0344 18.5967 17.6703 18.3333 18.3333 18.3333H21.6667C22.3297 18.3333 22.9656 18.5967 23.4344 19.0655C23.9033 19.5344 24.1667 20.1703 24.1667 20.8333V35.8333C24.1667 36.0543 24.2545 36.2663 24.4107 36.4226C24.567 36.5789 24.779 36.6666 25 36.6666H30.8333C31.4964 36.6666 32.1323 36.4033 32.6011 35.9344C33.0699 35.4656 33.3333 34.8297 33.3333 34.1666V15.9L36.15 18.15C36.2966 18.2676 36.4787 18.3322 36.6667 18.3333C36.7918 18.3327 36.9153 18.304 37.0278 18.2491C37.1403 18.1943 37.2391 18.1149 37.3167 18.0166C37.4529 17.844 37.5154 17.6244 37.4904 17.4058C37.4654 17.1873 37.355 16.9875 37.1833 16.85ZM31.9833 11.4166C32.1059 11.5135 32.2532 11.574 32.4085 11.5911C32.5638 11.6083 32.7208 11.5814 32.8615 11.5137C33.0023 11.4459 33.1211 11.3399 33.2046 11.2078C33.288 11.0757 33.3326 10.9229 33.3333 10.7666V6.66665C33.3333 6.44563 33.2455 6.23367 33.0893 6.07739C32.933 5.92111 32.721 5.83331 32.5 5.83331H27.375C27.2028 5.8343 27.0352 5.8886 26.8951 5.98874C26.7551 6.08887 26.6495 6.22993 26.5928 6.39252C26.5362 6.55512 26.5313 6.73126 26.5789 6.89674C26.6264 7.06222 26.724 7.20891 26.8583 7.31665L31.9833 11.4166Z" fill="#90DCC7"/>
</svg>
